<svg xmlns="http://www.w3.org/2000/svg" viewBox="0 0 373.57 277.89"><defs><style>.cls-1{fill:#ea5656;}.cls-2{fill:none;stroke:#ea5456;stroke-miterlimit:10;stroke-width:19px;}.cls-3{fill:#1d1d1b;}</style></defs><g id="Layer_2" data-name="Layer 2"><polygon class="cls-1" points="373.57 110.39 312.3 134 312.57 83.89 373.57 110.39"/><polygon class="cls-1" points="0 107.09 61.43 83.89 60.82 134 0 107.09"/></g><g id="Layer_4" data-name="Layer 4"><path class="cls-2" d="M110.85,222.37c-26.28-19.48-43.28-47.48-49.28-79.48-7-43,7-86,38.78-114.16"/><path class="cls-2" d="M281.11,37.46c23.78,27.06,35.37,64.64,30.4,100.37s-25.85,67.85-55.75,87.68a130.35,130.35,0,0,1-56.13,20.79"/></g><g id="Layer_3" data-name="Layer 3"><polygon class="cls-3" points="139.75 0 291.75 0 245.75 67 145.75 67 145.75 120.94 119.75 120.94 119.75 46 233.75 47 250.75 21 139.75 21 139.75 0"/><polygon class="cls-3" points="160.57 79.94 187.85 79.94 187.85 100.89 277.43 99.55 211.48 173.75 142.21 172.94 142.21 231.94 172.21 209.94 172.21 179.94 200.21 179.94 199.21 214.88 123.21 277.89 123.21 156.94 199.71 155.94 228.57 121.89 161.57 121.89 160.57 79.94"/></g></svg>